<svg xmlns="http://www.w3.org/2000/svg" width="24" height="22.4" viewBox="0 0 24 22.4">
  <g id="Polygon_2" data-name="Polygon 2" fill="none">
    <path d="M12,0l3,8.33,9,.226L16.854,13.93l2.562,8.47L12,17.391,4.584,22.4l2.562-8.47L0,8.556,9,8.33Z" stroke="none"/>
    <path d="M 12 2.951326370239258 L 9.940850257873535 8.669050216674805 L 9.709030151367188 9.312739372253418 L 9.025079727172852 9.329910278320313 L 2.897186279296875 9.483665466308594 L 7.746959686279297 13.13101005554199 L 8.305390357971191 13.55099010467529 L 8.103059768676758 14.21977996826172 L 6.355411529541016 19.99667358398438 L 11.44032001495361 16.5625 L 12 16.18450927734375 L 12.55967998504639 16.5625 L 17.64458847045898 19.99667358398438 L 15.89694023132324 14.21977996826172 L 15.69460964202881 13.55099010467529 L 16.2530403137207 13.13101005554199 L 21.10281372070313 9.483665466308594 L 14.97492027282715 9.329910278320313 L 14.29096984863281 9.312739372253418 L 14.05914974212646 8.669050216674805 L 12 2.951326370239258 M 12 0 L 15 8.330220222473145 L 24 8.556039810180664 L 16.85409927368164 13.93021965026855 L 19.41641044616699 22.39999961853027 L 12 17.39120864868164 L 4.583589553833008 22.39999961853027 L 7.145900726318359 13.93021965026855 L 0 8.556039810180664 L 9 8.330220222473145 L 12 0 Z" stroke="none" fill="#ef0000"/>
  </g>
</svg>
