<svg xmlns="http://www.w3.org/2000/svg" xmlns:xlink="http://www.w3.org/1999/xlink" width="24" height="24" viewBox="0 0 24 24">
  <defs>
    <clipPath id="clip-path">
      <rect id="Rectangle_527" data-name="Rectangle 527" width="24" height="24" fill="#306ee7"/>
    </clipPath>
  </defs>
  <g id="fitur-chat" clip-path="url(#clip-path)">
    <g id="chat_1_" data-name="chat (1)" transform="translate(0.216)">
      <g id="Group_100" data-name="Group 100">
        <g id="Group_99" data-name="Group 99">
          <path id="Path_2761" data-name="Path 2761" d="M12.055,0c-.006.006-.019.006-.039.006A11.774,11.774,0,0,0,2.782,19.117L1.065,23.1a.64.64,0,0,0,.334.842.654.654,0,0,0,.367.045l6.3-1.106a11.345,11.345,0,0,0,3.922.682A11.784,11.784,0,0,0,12.055,0ZM11.99,22.287a10.322,10.322,0,0,1-3.633-.662.617.617,0,0,0-.341-.032l-5.3.926,1.4-3.26a.647.647,0,0,0-.1-.675,10.28,10.28,0,0,1-1.788-2.971A10.5,10.5,0,1,1,22.5,11.729v.039A10.527,10.527,0,0,1,11.99,22.287Z" transform="translate(-0.216)" fill="#feb22b"/>
        </g>
      </g>
      <g id="Group_102" data-name="Group 102" transform="translate(7.157 9.433)">
        <g id="Group_101" data-name="Group 101">
          <path id="Path_2762" data-name="Path 2762" d="M11.489,9.433H8.016a.643.643,0,1,0,0,1.286h3.472a.643.643,0,1,0,0-1.286Z" transform="translate(-7.373 -9.433)" fill="#feb22b"/>
        </g>
      </g>
      <g id="Group_104" data-name="Group 104" transform="translate(7.157 12.648)">
        <g id="Group_103" data-name="Group 103">
          <path id="Path_2763" data-name="Path 2763" d="M15.99,12.648H8.016a.643.643,0,1,0,0,1.286H15.99a.643.643,0,1,0,0-1.286Z" transform="translate(-7.373 -12.648)" fill="#feb22b"/>
        </g>
      </g>
    </g>
  </g>
</svg>
