<svg id="security" xmlns="http://www.w3.org/2000/svg" width="18.689" height="24" viewBox="0 0 18.689 24">
  <path id="Path_2768" data-name="Path 2768" d="M18.454,4.859,9.434.053a.448.448,0,0,0-.427,0L.237,4.862A.449.449,0,0,0,0,5.256v6.278A13,13,0,0,0,7.8,23.432l1.217.531a.449.449,0,0,0,.357,0l1.372-.592a12.974,12.974,0,0,0,7.95-11.961V5.256a.449.449,0,0,0-.238-.4Zm-.66,6.55a12.078,12.078,0,0,1-7.4,11.135l0,0-1.195.516-1.038-.453A12.1,12.1,0,0,1,.9,11.534V5.522L9.226.959l8.568,4.566Zm0,0" transform="translate(-0.004 0)" fill="#4fd827"/>
  <path id="Path_2769" data-name="Path 2769" d="M5.913,11.243a.449.449,0,0,0-.683.583L7.6,14.6a.449.449,0,0,0,.625.057l5.525-4.495a.449.449,0,1,0-.567-.7L8,13.687Zm0,0" transform="translate(-0.004 0)" fill="#4fd827"/>
</svg>
