<svg xmlns="http://www.w3.org/2000/svg" width="110" height="17" viewBox="0 0 110 17">
  <g id="Stars" transform="translate(0 -3)">
    <path id="Polygon_4" data-name="Polygon 4" d="M9,0l2.25,6.322L18,6.493l-5.359,4.079L14.562,17,9,13.2,3.438,17l1.922-6.428L0,6.493l6.75-.171Z" transform="translate(0 3)" fill="#fdcc0d"/>
    <path id="Polygon_4-2" data-name="Polygon 4" d="M9,0l2.25,6.322L18,6.493l-5.359,4.079L14.562,17,9,13.2,3.438,17l1.922-6.428L0,6.493l6.75-.171Z" transform="translate(23 3)" fill="#fdcc0d"/>
    <path id="Polygon_4-3" data-name="Polygon 4" d="M9,0l2.25,6.322L18,6.493l-5.359,4.079L14.562,17,9,13.2,3.438,17l1.922-6.428L0,6.493l6.75-.171Z" transform="translate(46 3)" fill="#fdcc0d"/>
    <path id="Polygon_4-4" data-name="Polygon 4" d="M9,0l2.25,6.322L18,6.493l-5.359,4.079L14.562,17,9,13.2,3.438,17l1.922-6.428L0,6.493l6.75-.171Z" transform="translate(69 3)" fill="#fdcc0d"/>
    <path id="Polygon_4-5" data-name="Polygon 4" d="M9,0l2.25,6.322L18,6.493l-5.359,4.079L14.562,17,9,13.2,3.438,17l1.922-6.428L0,6.493l6.75-.171Z" transform="translate(92 3)" fill="#fdcc0d"/>
  </g>
</svg>
