<svg id="location" xmlns="http://www.w3.org/2000/svg" width="28.038" height="28.038" viewBox="0 0 28.038 28.038">
  <path id="Path_2772" data-name="Path 2772" d="M0,0H28.038V28.038H0Z" fill="none"/>
  <path id="Path_2773" data-name="Path 2773" d="M12.344,1.667A8.172,8.172,0,0,0,4.167,9.844c0,6.133,8.178,15.187,8.178,15.187s8.178-9.054,8.178-15.187A8.172,8.172,0,0,0,12.344,1.667ZM6.5,9.844a5.841,5.841,0,1,1,11.682,0c0,3.365-3.365,8.4-5.841,11.542C9.914,18.267,6.5,13.174,6.5,9.844Z" transform="translate(1.674 0.67)" opacity="0.8"/>
  <circle id="Ellipse_20" data-name="Ellipse 20" cx="2.921" cy="2.921" r="2.921" transform="translate(11.098 7.594)" opacity="0.8"/>
</svg>
