<svg xmlns="http://www.w3.org/2000/svg" xmlns:xlink="http://www.w3.org/1999/xlink" width="28.215" height="26" viewBox="0 0 28.215 26">
  <defs>
    <clipPath id="clip-path">
      <rect id="Rectangle_2" data-name="Rectangle 2" width="20" height="20" transform="translate(997 28)" fill="#c4c4c4"/>
    </clipPath>
  </defs>
  <g id="Cart" transform="translate(-1000 -22)">
    <g id="Mask_Group_380" data-name="Mask Group 380" transform="translate(3)" clip-path="url(#clip-path)">
      <g id="shopping-cart" transform="translate(997.326 28)">
        <g id="Group_82" data-name="Group 82" transform="translate(0 0)">
          <g id="Group_81" data-name="Group 81">
            <circle id="Ellipse_11" data-name="Ellipse 11" cx="2.364" cy="2.364" r="2.364" transform="translate(5.332 15.271)" fill="#fff"/>
            <path id="Path_2722" data-name="Path 2722" d="M17.433,18.326h0A2.364,2.364,0,1,0,19.8,20.69,2.364,2.364,0,0,0,17.433,18.326Z" transform="translate(-2.837 -3.054)" fill="#fff"/>
            <path id="Path_2723" data-name="Path 2723" d="M19.016,12.859H6.688l-.241-1.4H16.579A.724.724,0,0,0,17.254,11l2.413-6.08a.724.724,0,0,0-.676-.989H5.192L4.613.6A.724.724,0,0,0,3.889,0H1.115a.724.724,0,1,0,0,1.448H3.286L5.361,13.7a.724.724,0,0,0,.724.6H19.016a.724.724,0,0,0,0-1.448Z" transform="translate(-0.391 0)" fill="#fff"/>
          </g>
        </g>
      </g>
      <g id="Angka" transform="translate(1049.679 28)">
        <circle id="Ellipse_10" data-name="Ellipse 10" cx="6.667" cy="6.667" r="6.667" fill="#5299d6"/>
        <text id="_3" data-name="3" transform="translate(4.167 9.833)" fill="#fff" font-size="9" font-family="Poppins-SemiBold, Poppins" font-weight="600"><tspan x="0" y="0">3</tspan></text>
      </g>
    </g>
    <g id="Angka-2" data-name="Angka" transform="translate(1012.215 22)">
      <circle id="Ellipse_10-2" data-name="Ellipse 10" cx="8" cy="8" r="8" fill="#feb22b"/>
      <text id="_1" data-name="1" transform="translate(6 12)" fill="#fff" font-size="10" font-family="Poppins-SemiBold, Poppins" font-weight="600"><tspan x="0" y="0">1</tspan></text>
    </g>
  </g>
</svg>
