<svg xmlns="http://www.w3.org/2000/svg" xmlns:xlink="http://www.w3.org/1999/xlink" width="28" height="26" viewBox="0 0 28 26">
  <defs>
    <clipPath id="clip-path">
      <rect id="Rectangle_487" data-name="Rectangle 487" width="20" height="20" fill="#8f0b0b"/>
    </clipPath>
  </defs>
  <g id="Chat" transform="translate(0 2)">
    <g id="Mask_Group_378" data-name="Mask Group 378" transform="translate(0 4)" clip-path="url(#clip-path)">
      <g id="chat_1_" data-name="chat (1)" transform="translate(0 0.664)">
        <path id="Path_2718" data-name="Path 2718" d="M13.015,4.626A6.86,6.86,0,0,0,0,7.632a6.762,6.762,0,0,0,.654,2.922L.012,13.767a.586.586,0,0,0,.688.69l3.253-.643a6.74,6.74,0,0,0,1.357.475A8.016,8.016,0,0,1,13.015,4.626Z" transform="translate(0 -0.797)" fill="#fff"/>
        <path id="Path_2719" data-name="Path 2719" d="M20.608,16.554a6.816,6.816,0,0,0,.293-.723H20.88A6.843,6.843,0,0,0,14.725,6.8h0A6.836,6.836,0,1,0,14.4,20.468a6.761,6.761,0,0,0,2.913-.654c3.563.7,3.285.654,3.367.654a.586.586,0,0,0,.575-.7Z" transform="translate(-1.262 -1.797)" fill="#fff"/>
      </g>
    </g>
    <g id="Angka" transform="translate(12 -2)">
      <circle id="Ellipse_10" data-name="Ellipse 10" cx="8" cy="8" r="8" fill="#feb22b"/>
      <text id="_3" data-name="3" transform="translate(5 12)" fill="#fff" font-size="10" font-family="Poppins-SemiBold, Poppins" font-weight="600"><tspan x="0" y="0">3</tspan></text>
    </g>
  </g>
</svg>
