<svg id="Layer_1" data-name="Layer 1" xmlns="http://www.w3.org/2000/svg" viewBox="0 0 494.2 158.3"><defs><style>.cls-1{fill:#005aab;}.cls-1,.cls-2,.cls-3{fill-rule:evenodd;}.cls-2{fill:#ed1c24;}.cls-3{fill:#ffd503;}</style></defs><title>Alfamart</title><path class="cls-1" d="M88,242.9c1.5,2.2,7.3,22,8.2,25.9H80.1L88,242.9ZM140.7,219c-7.8,2.3-7.7,10.5-7.7,19.1,0,14.1-.6,40.6,0,53,.7,14.7,16.9,16.2,21.1,4.7,1.7-4.7,1-32.6,1-38.7,0-8.5.4-18.1-.1-26.4s-5.6-14.2-14.3-11.7Zm28.4,22.9c-12.4,0-12.7,14,0,14.9v28.6c0,4.6-.6,8.7,1.4,12.4,4,7.5,15.5,6.8,18.6.4s.2-30.1,1.5-41.4c6.7,0,13.8-.2,13.6-7.6s-6.8-7.3-13.7-7.3c0-4.7-.5-7.3,4.4-7.8s7.6,1,9.5-2.3c3.5-6.2-1.4-11.7-10-12.9s-15.1.4-20,4-5.3,12.5-5.3,19Zm65.7,14.2c8.9-1.8,11.2,6.3,11.7,13.8s-.3,17.6-8.3,18.3-12.1-6-12.6-14.3,1.7-16.2,9.2-17.8Zm14.4,44c-5.1,1.7-6.1,4.5-16.8,3.7a33.7,33.7,0,0,1-15.3-4.9c-7.5-4.8-13.7-14.1-13.2-27.2s6.5-22,13.7-26.8a33,33,0,0,1,15.2-5c10.8-.9,12.9,2.8,17,3.7,4.4-6.6,14.8-4.2,17.7,2.7l-.4,52.1a11,11,0,0,1-14.3,4.5c-2-.9-2-1.7-3.6-2.8ZM75,287.3l26.4-.2c1.1,4.8,3.1,11.6,6,13.8,4.6,3.6,11.3,2.7,15.1-1s3.7-9.1,1.5-15.6l-5.3-15q-5.4-15-10.5-29.7c-4.4-12.7-4.3-20.5-20.1-20.5-6.7.1-11.7,1.4-14.3,5.7S56,274.4,52.5,284.2c-2.2,6-3.1,11.2,1,15.4s15.8,6.2,19.1-4.6C73.4,292.4,74.2,290,75,287.3Z" transform="translate(-50.6 -218.5)"/><path class="cls-2" d="M50.6,351.1v8.7H449.1c22.1,0,44.2.2,66.3.1,8.7-.1,18-4,22.6-10.4,6.7-9.2,6.7-12.9,6.7-26.4-4.9-.8-421.9-.2-465-.2C64,322.9,50.6,335.4,50.6,351.1Z" transform="translate(-50.6 -218.5)"/><path class="cls-2" d="M507.8,227.1c1.3,3.1,2,2,1.8,7.1a57.4,57.4,0,0,1-1,8.2c-1,4.8-2.4,9.7-3.5,14.6-4.4,19.2-13.6,50.3,15.7,46.6,9.8-1.3,21.2-6.9,14.8-17.7-4.2,2.4-17.2,11.5-17.2-2.3,0-8.5,3.2-16.7,4.3-24.8,9.3-.1,21.4,2,22-12.1a77.5,77.5,0,0,1-19.4,1.6c.9-5.4,5.8-17.1,2.8-21.2s-14.8-1.3-20.3,0ZM303.5,258.7c.9-5.1,4.5-14.3,0-17.5s-13.8-.9-18,1.4c2.6,2.1,2,5.5,1.5,9.6a249.2,249.2,0,0,1-6,28.8c-1.1,4.4-5,14.6-2.8,18.6s11.9,3.9,17.7,2c-.5-4.5-2.9-4.8,1.9-14.4,2.1-4.3,4.1-8.3,6.2-12.4a125.2,125.2,0,0,1,7-11.5,61,61,0,0,1,4-5.3c.8-1,1.4-1.3,2.2-2.2s1-1.6,3.1-1.8c.7,5.3-4.9,26.3-6.4,32.5s-3.8,11.7.2,15.2,12.3,1.7,15.9-.5c-2.2-5.7-.5-9.2,1.9-14.3s4-8.2,6.3-12.3,11.8-20.4,16-20.6c.8,2.1-5.4,28.8-6.2,33.5-1.2,6.4-.9,12.8,4.4,15.1s11.7-1.2,16.1-2.9c-.7-1.5.1,0-.8-1.3s-.2,0-.9-1.4c-3.1-6.1-.1-17,1.2-23.5s5.2-21.6,4.5-27.2c-1.4-10.2-12.8-8.1-20.4-2.8-3.5,2.4-5.7,5-8.2,7.7s-5.6,7.2-7.3,9c.5-5.2,3.1-11,.8-16.3S330,238,324,240.1s-11.5,7.8-16.1,13.1c-.8.9-1.2,1.5-2.1,2.7l-2.3,2.8Zm117.4-1.9c-1.3,1.6-7.7,14.2-12.2,20.4-1.9,2.7-14.5,21.8-13.3,4.6.5-7.9,5.1-33.9,16.4-31.9,3.6.7,8.1,4.6,9.1,6.9Zm-5.7,25.9c-1.5,1.3-3.9,5.5-5.5,7.4-3.8,4.7-3.1,3.4-5.8,6.5s-10,8.2-17.7,7c-13.9-2.1-11.2-25-6.7-36.2,6.8-16.8,21.9-32.8,39.8-27.2,1.1.3,3.9,1.7,4.4,1.8s2.9-1.2,4.7-1.7c4.3-1.2,12.4.2,15.4,2.2L439.1,255a113.4,113.4,0,0,0-5.1,29.5c-.4,9.9.7,9.1,2.4,15.1-4,3.5-11.7,5.6-17.6,2s-3.8-11.8-3.6-18.9Zm55.7-23.6c4.6-6.1,12.9-18.5,21.3-19.8,13.9-2.3,4.4,19.3-2.9,23.9-1.3-1.8-2.7-3.9-5.9-2.8s-10.4,11.4-12.4,15a125.5,125.5,0,0,0-6,12.2c-4.2,10.2-2.1,8.7-1.5,13.9-5.7,2-15.1,3.7-18.5-1.5-2.3-3.6,1.7-14.8,2.8-19.1,1.7-6.3,3.2-12.8,4.6-19.2,1.7-8.2,3.1-12.7.4-19.4,5.1-1.5,13.4-4.6,18.1-.8S471,253.6,470.9,259.1Z" transform="translate(-50.6 -218.5)"/><path class="cls-3" d="M50.6,376.7H503.4c11.3,0,19.2,1,27.8-4.4,4.7-2.9,12.8-11.4,12.8-19.3-1.5,1.1-2.3,2.6-3.8,4-14,12.4-26.2,9.7-46,9.7H50.6Z" transform="translate(-50.6 -218.5)"/></svg>