<svg id="Layer_1" data-name="Layer 1" xmlns="http://www.w3.org/2000/svg" xmlns:xlink="http://www.w3.org/1999/xlink" viewBox="0 0 463.5 172.5"><defs><style>.cls-1{fill:#fff;}.cls-2{fill:#003d79;}.cls-3{fill:url(#New_Gradient_Swatch_1);}</style><linearGradient id="New_Gradient_Swatch_1" x1="392.09" y1="287.26" x2="645.96" y2="163.45" gradientTransform="translate(10.7 19.7) rotate(1.2)" gradientUnits="userSpaceOnUse"><stop offset="0" stop-color="#fdb913"/><stop offset="0.22" stop-color="#ffcb05"/><stop offset="0.39" stop-color="#faa61a"/><stop offset="0.53" stop-color="#ffcb05"/><stop offset="0.65" stop-color="#faa61a"/><stop offset="0.65" stop-color="#fbab17"/><stop offset="0.69" stop-color="#fdbd0d"/><stop offset="0.72" stop-color="#ffc807"/><stop offset="0.76" stop-color="#ffcb05"/><stop offset="0.8" stop-color="#ffcb05"/><stop offset="1" stop-color="#ffcb05"/></linearGradient></defs><title>bank_mandiri [Converted]</title><rect class="cls-1" width="463.5" height="172.49"/><path class="cls-2" d="M225.7,319c0-5.7-.1-10.4-.4-14.7H236l.6,7.3h.3a17,17,0,0,1,15.1-8.4,14.2,14.2,0,0,1,13.6,9.1h.2a19.7,19.7,0,0,1,6.1-6.1,16,16,0,0,1,9.9-3c8.2,0,16.4,5.6,16.4,21.3v29H286.1V326.3c0-8.1-2.8-13-8.8-13-4.2,0-7.3,3-8.6,6.6a17.6,17.6,0,0,0-.6,4.1v29.5H255.9V325c0-6.8-2.7-11.7-8.4-11.7s-7.8,3.7-8.9,7.1a10.5,10.5,0,0,0-.7,4v29.1H225.7Z" transform="translate(-189.2 -211.4)"/><path class="cls-2" d="M345.4,341.7a79.5,79.5,0,0,0,.7,11.8H334.9l-.8-5.4h-.3a18.3,18.3,0,0,1-14.5,6.5c-9.9,0-15.5-7.1-15.5-14.6,0-12.5,11-18.7,29.2-18.6v-.8c0-3.2-1.3-8.6-10-8.6a26.2,26.2,0,0,0-13.2,3.6l-2.4-8c3.6-2.3,10-4.4,17.7-4.4,15.8,0,20.3,10,20.3,20.7Zm-12.1-12.2c-8.8-.2-17.1,1.7-17.1,9.2,0,4.8,3.1,7,7,7a9.4,9.4,0,0,0,10.1-9.5Z" transform="translate(-189.2 -211.4)"/><path class="cls-2" d="M354,319c0-5.7-.1-10.4-.4-14.7h10.9l.6,7.4h.3a18,18,0,0,1,15.7-8.5c8.6,0,17.5,5.6,17.5,21.1v29.2H386.1V325.7c0-7-2.6-12.4-9.4-12.4-4.9,0-8.3,3.6-9.6,7.3a10.2,10.2,0,0,0-.6,4v28.9H354Z" transform="translate(-189.2 -211.4)"/><path class="cls-2" d="M452.4,284.6v55.1c0,5,.2,10.5.4,13.8H441.7l-.5-7.8H441c-2.9,5.5-8.9,8.9-16.1,8.9-11.7,0-21-10-21-25.1s10.2-26.3,22-26.3c6.8,0,11.7,2.8,13.9,6.5h.2V284.6ZM440,324.8a17.3,17.3,0,0,0-.3-3.2,11,11,0,0,0-10.7-8.8c-8,0-12.5,7.1-12.5,16.3s4.5,15.5,12.4,15.5a10.9,10.9,0,0,0,10.7-8.8,13.7,13.7,0,0,0,.4-3.6Z" transform="translate(-189.2 -211.4)"/><path class="cls-2" d="M461.2,353.5V304.3h12.5v49.2Z" transform="translate(-189.2 -211.4)"/><path class="cls-2" d="M482.5,320.2c0-6.7-.1-11.4-.4-15.9h10.8l.4,9.4h.4c2.4-6.9,8.2-9.4,13.4-9.4a14,14,0,0,1,2.9,0v10.9a17.1,17.1,0,0,0-3.6-.4c-5.9,0-10,3.9-11.1,9.4a21.3,21.3,0,0,0-.4,3.9v25.4H482.5Z" transform="translate(-189.2 -211.4)"/><path class="cls-2" d="M515.8,353.5V304.3h12.5v49.2Z" transform="translate(-189.2 -211.4)"/><path class="cls-3" d="M606.3,252.3c-6.2-7-12.8-3.8-18.1-1.2-2.2,1-18.1,10.1-18.1,10.1-8.7,3.6-15.5-.4-18.1-3.7a3.6,3.6,0,0,1-.7-1l-.6-1a60.1,60.1,0,0,0-3.5-5.3c-.8-.9-1.6-1.9-2.5-2.8-6-6-15.5-10.3-31.4-2.6l-32.1,18.4c-9.3,3.8-16.3-.8-18.6-4.2l-.3-.4-.3-.5-1.5-2.6-2.3-3.2a34.7,34.7,0,0,0-2.5-2.9c-5.9-6-15.4-10.2-31.2-2.7l-31.7,18.2h0l-16.3,9.3,8.4,10.3c3.6,3.4,10.2,8.9,20.5,4.2l28.5-16.5c24.3-13.3,36.2-.6,41.5,7.9l.5.8h0l.2.3.6,1c2.6,3.9,6.7,6.5,11.5,6.3,2.7,0,4.5-.9,7.1-2.3l27.5-16h.1c24.5-13.5,36.7.1,41.9,8.6a14.3,14.3,0,0,0,1.4,2c2.5,3.5,6.1,5.8,10.6,5.7a14.2,14.2,0,0,0,6.8-2.2l32.9-19A127.8,127.8,0,0,0,606.3,252.3Z" transform="translate(-189.2 -211.4)"/></svg>