<svg id="Layer_1" data-name="Layer 1" xmlns="http://www.w3.org/2000/svg" viewBox="0 0 437.8 143.1"><defs><style>.cls-1,.cls-2{fill:#039;}.cls-2{fill-rule:evenodd;}</style></defs><title>Bank BCA</title><path class="cls-1" d="M159.7,324.4q30.2.2,62.1,14.4l1,.4.4,1h0c1.7,5.2,3.2,10.5,4.5,15.7s2.2,10.6,2.9,15.8a160.5,160.5,0,0,1,1.7,20.7v8a180.3,180.3,0,0,1-9.1,52.3l-.4,1-1,.4c-20.1,9-40.4,13.4-60.5,13.4h-1.6v-4.9h1.6c19.1,0,38.4-4.1,57.6-12.5a171.9,171.9,0,0,0,6.9-77.7,139.4,139.4,0,0,0-3-15.4c-1-4.7-2.4-9.6-3.9-14.3q-30.6-13.4-59.2-13.5Zm-59.1,14.4a127.6,127.6,0,0,1,58.7-14.4h.4v4.9h-.4a122.3,122.3,0,0,0-55.7,13.5c-7.3,17.3-11.4,34.8-11.6,52.8s3.4,36,11.5,54.5q28.2,12.3,56.2,12.6v4.9c-19.7-.2-39.3-4.6-59-13.4L99.4,453c-8.3-18.7-12.2-37.1-12.3-55.2v-2.3c.2-18.8,4.6-37.3,12.3-55.4Z" transform="translate(-87.1 -324.4)"/><path class="cls-2" d="M161,436c-1-13.8-.4-28.1-4.5-41.2s-18.3-19.2-18.5-32.7a22.1,22.1,0,0,1,22.6-22.7c14.1-.1,22.8,10.2,23.8,21.5,1.2,13.2-14.8,22.1-18.9,34.6S162.4,422.5,161,436Z" transform="translate(-87.1 -324.4)"/><path class="cls-2" d="M166.5,432.6c-.5-11.9-.5-23.4,2.8-33.5s11.3-21.2,22.9-24.4c8-2.2,19.8,7.2,17.9,16.8-1.6,7.7-9.3,16.7-21.7,17.7-5.7.6-8.2,5.2-11.8,7.8,16.1-1.6,26.6-7.9,33.9-14.5,1,5.6,1.8,15-2.6,18.3-8.7,6.1-16.7,1.1-26.8,4C175.4,426.5,171.9,430.1,166.5,432.6Z" transform="translate(-87.1 -324.4)"/><path class="cls-2" d="M155.5,432.6c.7-11.9.6-23.4-2.6-33.5s-11.3-21.2-23-24.4c-8-2.2-19.8,7.2-17.9,16.8,1.6,7.7,9.3,16.7,21.7,17.7,5.7.6,8.2,5.2,11.8,7.8-16.2-1.6-26.6-7.9-33.8-14.5-1.1,5.6-1.8,15,2.6,18.3,8.6,6.1,16.6,1.1,26.7,4C146.7,426.5,150.2,430.1,155.5,432.6Z" transform="translate(-87.1 -324.4)"/><path class="cls-2" d="M193.9,450.4v-1.9l1.4-.4-1.4-2.1v-3.6l6.5,9-2.3.5-1.6-2.2Zm0-8V446l-1-1.5-.4,4.3,1.4-.3v1.9l-1.7.4-.2,2.7-2.4.5,1.6-11.7,2.3-.6.4.7Zm-21.5,14.3v-1.9h.5l1.6-.2.7-.5a1.6,1.6,0,0,0,.3-.9,1.9,1.9,0,0,0-.4-.9.8.8,0,0,0-.7-.4h-2V450h1.1a1.3,1.3,0,0,0,.9-.5.8.8,0,0,0,.2-.8c0-.4-.1-.7-.4-.8a.9.9,0,0,0-.8-.4h-1v-1.9a5.3,5.3,0,0,1,1.8,0,2.8,2.8,0,0,1,1.2.4c.4.1.6.4.9.8a3.9,3.9,0,0,1,.5,1.3,3.2,3.2,0,0,1-.3,1.4,2.9,2.9,0,0,1-1.1,1.1,2.4,2.4,0,0,1,1.6.8,2.7,2.7,0,0,1,.8,1.6,7.7,7.7,0,0,1-.2,1.5l-.9,1.3a5.2,5.2,0,0,1-1.5.6l-2.6.3Zm13.6-6.1,2.3.3a5.2,5.2,0,0,1-1.2,3,6.3,6.3,0,0,1-2.7,1.4,5.1,5.1,0,0,1-3.8-.9,6.7,6.7,0,0,1-1.5-8.3,4.9,4.9,0,0,1,3.4-2.1,4.6,4.6,0,0,1,3.5.6,3.3,3.3,0,0,1,1.4,1.8l-2.1.9a2,2,0,0,0-1-1.2,2.9,2.9,0,0,0-1.6-.3,3.2,3.2,0,0,0-1.8,1.2,4.8,4.8,0,0,0-.3,3,5.6,5.6,0,0,0,1.3,2.8,2.3,2.3,0,0,0,3.5-.3A2.7,2.7,0,0,0,186,450.6Zm-13.6-5v1.9h-2.2l.2,2.5h2v1.9h-1.8l.3,3,1.5-.2v1.9l-3.6.4-1-11.1,4.4-.3Zm-13.9,7.3V451h1.1l.7-.5a2.9,2.9,0,0,0,.2-.9,1.2,1.2,0,0,0-.3-1,1.3,1.3,0,0,0-.9-.5h-.8V446a4.5,4.5,0,0,1,2.1.3,2.5,2.5,0,0,1,1.6,1,3.2,3.2,0,0,1,.6,2.2,4.7,4.7,0,0,1-.4,1.7,3.3,3.3,0,0,1-.9,1.1l-1.2.5Zm0-6.9v1.9h-1.9V451h1.9v1.9h-2v4.2h-2.3l.2-11h4.1Zm-20.8,5.8v-3.4l1.3.2.8-.4a3.4,3.4,0,0,0,.3-.8,1.3,1.3,0,0,0-.1-.9,1.6,1.6,0,0,0-.8-.6l-1.5-.3v-1.9l1,.2a7.7,7.7,0,0,1,2.4.7,2.4,2.4,0,0,1,1.1,1.3,2.7,2.7,0,0,1,.1,1.8,3.2,3.2,0,0,1-1,1.9,3.7,3.7,0,0,1-2.3.6,5,5,0,0,1,1,1.1,13.7,13.7,0,0,1,.9,2l.9,2.4-2.6-.5-1.1-2.7a2.5,2.5,0,0,0-.4-.7Zm6.4-6.8,2.1.2-.5,6V453a1.4,1.4,0,0,0,.5,1.1,2.3,2.3,0,0,0,1.5.6,2,2,0,0,0,1.4-.3,1.3,1.3,0,0,0,.7-.9,6.8,6.8,0,0,0,.2-1.8l.6-6.2,2.2.3-.5,5.7a7.3,7.3,0,0,1-.5,2.8,2.7,2.7,0,0,1-.7,1.3,2.2,2.2,0,0,1-1.4.8,6.2,6.2,0,0,1-2.1.2,5.9,5.9,0,0,1-2.4-.6,6.3,6.3,0,0,1-1.2-1,4.3,4.3,0,0,1-.5-1.3,12.9,12.9,0,0,1,0-2.8Zm-17.5,3.2.4-1.8,4.7,1.2-1.2,4.3a5.8,5.8,0,0,1-2.3.6,7.4,7.4,0,0,1-2.6-.2,6.7,6.7,0,0,1-2.8-1.4,5.3,5.3,0,0,1-1.3-2.6,6.1,6.1,0,0,1,.1-3,6.9,6.9,0,0,1,1.5-2.8,5.6,5.6,0,0,1,2.5-1.4,5.5,5.5,0,0,1,2.8.2,5.4,5.4,0,0,1,2.9,1.6,4.2,4.2,0,0,1,.7,2.7h-2.2a2,2,0,0,0-.5-1.5,2.3,2.3,0,0,0-1.4-.9,3,3,0,0,0-2.5.3,4.4,4.4,0,0,0-1.6,2.4,5.3,5.3,0,0,0,.1,3.1,2.8,2.8,0,0,0,2,1.5,3.4,3.4,0,0,0,1.4.2l1.4-.4.3-1.4-2.4-.6Zm11.1-4.5-3.7-.6L132.1,454l2.2.3.8-4.5h.5l1.1.2.5.6.5,1.1v-3.4H137l-1.6-.2.5-2.8,1.7.3h.1Z" transform="translate(-87.1 -324.4)"/><path class="cls-2" d="M480.9,430.3V410h8.9V374.3l-8.9,17.8V347.5H516l8.9,102.7H489.8V430.3Zm0-82.8v44.6L472,410h8.9v20.3H464l-6.9,18.8H435.4V425.7l24.2-52.4h-4.9l13.8-25.8Zm-45.5,34.2L446.3,356l-10.9-6.1Zm-86.5-9.8a24.8,24.8,0,0,0,0-8.6v8.6Zm86.5-22v31.8l-1.5,3.5c-21.4-15.3-53.1-1.4-54.9,14.8s11.1,30.6,44,20.4l-11.3,30.2c-43.4,4.9-60.3-12.3-62.8-32.4V406.8a62,62,0,0,1,3.9-15.1c21.4-53.2,56.1-41.2,69.3-42.2l1.9-5.9,11.4,6.3Zm0,75.8-10.9,23.4h10.9ZM309.9,448.5c23.2-4.6,46.1-32.6,23.2-54.8a30.8,30.8,0,0,0,15.8-21.8v-8.6c-1.6-8.8-8.4-16-21.3-16.3l-17.7-.3v19.7h7.3c7.9,0,6.9,20.3-2.9,20.3h-4.4v15.6c10.6,2,6.8,16.7,0,21.2v25Zm39-41.7v11.4A54.3,54.3,0,0,1,348.9,406.8ZM279.2,346l-14.3,27.8,6.4-.5L254,449.1h49.5a35.5,35.5,0,0,0,6.4-.6v-25a6.7,6.7,0,0,1-4,1.4H288.1L294,402h13.4a9.5,9.5,0,0,1,2.5.3V386.7H297.5l5-20.3h7.4V346.7Z" transform="translate(-87.1 -324.4)"/></svg>