<svg id="Layer_1" data-name="Layer 1" xmlns="http://www.w3.org/2000/svg" viewBox="0 0 57.1 19.5"><defs><style>.cls-1,.cls-2{fill:#2356a7;}.cls-1{fill-rule:evenodd;}</style></defs><title>Bank BRI</title><path class="cls-1" d="M123.5,146.7l1,1.2,1.1,1.1a1.9,1.9,0,0,1,.6,1.5,2,2,0,0,1-.8,1.4,1.5,1.5,0,0,1-.9.2h-1.1a1,1,0,0,1-.8-.4c-.2-.2-.2-.3-.2-.8s-.1-8.5,0-8.7a1,1,0,0,1,.4-.7l.9-.2a3,3,0,0,1,1.9.3,1.6,1.6,0,0,1,.7,1.4,1.8,1.8,0,0,1-.7,1.5c-.4.6-2,1.9-2.1,2.2Zm3.8-5.4h1.4a1.7,1.7,0,0,1,1.4,1.5c0,.5,0,.7-.3,1l-1.8,1.8-1,1.1,3.2,3.4,2,2h-4.8l.3-.4a2.1,2.1,0,0,0,.3-1.2,2.7,2.7,0,0,0-1-2.1l-1.6-1.7.5-.5,1.1-1.1a1.2,1.2,0,0,0,.5-.5,2.4,2.4,0,0,0,.4-1.7,3.2,3.2,0,0,0-.6-1.6Zm3.6,0c1.4,0,2.3-.1,2.3,1.8v7.8l-4.1-4.2.4-.6.6-.5.3-.3.8-.8a2.2,2.2,0,0,0,.5-1.7c0-.9-.6-1.1-.7-1.5Zm-7.6-1.3a2.3,2.3,0,0,0-2,1.4,2.1,2.1,0,0,0-.3,1.4v8.4a2.2,2.2,0,0,0,1.4,2,3,3,0,0,0,1.4.2h8.4a2.3,2.3,0,0,0,2-1.3,3.2,3.2,0,0,0,.2-1.4v-8.5a2.1,2.1,0,0,0-.4-1.2,2.4,2.4,0,0,0-.9-.8,3.6,3.6,0,0,0-1.5-.2h-8.3Z" transform="translate(-121 -140)"/><path class="cls-1" d="M149.2,150.1h1.7v-4.5l1.2,2.2,1.1,2.3h2.2v-6.7h-1.7v4.4c0-.1-1.2-2.4-1.4-2.8l-.8-1.6h-2.3v6.7Z" transform="translate(-121 -140)"/><path class="cls-1" d="M166.1,148.8v-1.6h1.3a.7.7,0,0,1,0,1.4Zm0-2.8v-1.4h1.2a.6.6,0,0,1,.5.6c0,.7-1.2.8-1.7.7Zm-1.8,4.1h2.6c1.3,0,3.1-.3,2.9-2.1a1.7,1.7,0,0,0-.8-1.2h-.5c0-.2.1-.1.4-.3a1.6,1.6,0,0,0-.1-2.7,3.5,3.5,0,0,0-2.1-.3h-2.4v6.7Z" transform="translate(-121 -140)"/><path class="cls-1" d="M138.2,147.3a5.7,5.7,0,0,1,1.3,0,.7.7,0,0,1,.6.7c0,.4-.1.5-.5.7h-1.4v-1.4Zm0-2.6h1.2c.3.1.5.2.5.6a.7.7,0,0,1-.6.7h-1.1v-1.3Zm-1.8,5.4c1.5-.1,4.7.3,5.3-1.1a1.7,1.7,0,0,0-1-2.3h.3a1.6,1.6,0,0,0,.7-1.1c0-.7,0-1.3-.8-1.7a3.3,3.3,0,0,0-2-.3h-2.5v6.7Z" transform="translate(-121 -140)"/><path class="cls-1" d="M172,144.6c.7,0,1.9,0,1.7,1s-1.1.6-1.7.6v-1.6Zm-1.8,5.5H172v-2.7a1.3,1.3,0,0,1,.9.2c.4.3.6,1.1.8,1.6s.1.3.1.4.1.4.2.5h1.8c0-.2-.8-2.3-.9-2.7s-.5-.4-.6-.7a1.5,1.5,0,0,0,1.2-1.2c.1-.9-.1-1.5-.7-1.8a5.1,5.1,0,0,0-2.2-.3h-2.4v6.7Z" transform="translate(-121 -140)"/><path class="cls-1" d="M156,150.1h1.8v-3c.2.1,1.8,2.7,2.1,2.9h2.2a8.8,8.8,0,0,0-1.2-1.7l-1.3-1.7c-.1-.2-.1-.2.1-.4l1.6-2.1.6-.8h-2.1c-.1,0-.5.6-.6.7l-.7,1-.7.9v-2.6H156v6.7Z" transform="translate(-121 -140)"/><path class="cls-1" d="M145.3,144.8c.1,0,.5,1.7.6,1.9s.2.5.2.7h-1.7l.5-1.3a1.9,1.9,0,0,1,.2-.7.4.4,0,0,1,.1-.3c0-.1,0-.3.1-.3Zm-3.6,5.3h1.5c.3,0,.3-.1.3-.2a3.1,3.1,0,0,0,.5-1.2h2.3c.1,0,.2,0,.3.2a9.4,9.4,0,0,1,.3.9c.1.4.2.4.4.4H149l-2.6-6.7h-2.1a5.6,5.6,0,0,0-.7,1.6l-1.3,3.4a11.5,11.5,0,0,0-.6,1.7Z" transform="translate(-121 -140)"/><polygon class="cls-1" points="57.1 10.1 57.1 3.4 55.3 3.4 55.3 10.1 57.1 10.1 57.1 10.1"/><path class="cls-2" d="M122.5,158.7h.3v-2.6h.1l.8,2.6h.4l.8-2.5h0v2.5h.4v-3h-.5l-.7,2.1-.2.4h0v-.4l-.7-2.1h-.6v3Zm4.9-.7c-.1.1-.2.4-.6.4s-.6-.2-.6-.7h1.6c0-1.2-.8-1.2-1-1.2a1.1,1.1,0,0,0,0,2.2.9.9,0,0,0,1-.7Zm-1.2-.6a.6.6,0,0,1,.6-.6c.3,0,.5.1.5.3a.4.4,0,0,1,.1.3Zm2,1.3h.4v-3h-.4v3Zm1.2-1.5c.1-.2.1-.4.6-.4s.5.3.5.5h-.6c-.3.1-.9.1-.9.7s.3.6.8.6a1.1,1.1,0,0,0,.8-.3v.3h.4a2,2,0,0,1-.1-.9v-.5c0-.4,0-.8-.8-.8s-1,.4-1,.6Zm1.1.5a.7.7,0,0,1-.1.5.7.7,0,0,1-.6.2c-.3,0-.4-.2-.4-.3s.3-.3.5-.4h.6Zm.8,1.8h.3c.4,0,.5-.3.7-.7h0l.8-2.2h-.4l-.4,1.3c-.1.1-.1.3-.2.5h0a1.1,1.1,0,0,0-.1-.5l-.5-1.3h-.4l.8,2.2h0c-.1.2-.1.4-.4.4h-.2v.3Zm2.3-2.3c.1-.2.1-.4.6-.4s.5.3.5.5h-.6c-.3.1-.9.1-.9.7s.3.6.8.6a.8.8,0,0,0,.7-.3.4.4,0,0,1,.1.3h.4a2,2,0,0,1-.1-.9v-.5c0-.4,0-.8-.8-.8s-1,.4-1,.6Zm1.1.5a.7.7,0,0,1-.1.5.8.8,0,0,1-.6.2c-.3,0-.4-.2-.4-.3s.3-.3.5-.4h.6Zm1,1h.3v-1.2a.6.6,0,0,1,.1-.4.5.5,0,0,1,.5-.3c.4,0,.4.4.4.6v1.3h.4v-1.4a.9.9,0,0,0-.1-.5c-.1-.3-.4-.3-.6-.3a.7.7,0,0,0-.7.3h0v-.3h-.3v2.2Zm2.3,0h.3v-2.2H138v2.2Zm0-2.6h.3v-.4H138v.4Zm2.1,2.6h1.1a1.4,1.4,0,0,0,.9-.3,1.7,1.7,0,0,0,.5-1.2c0-.6-.2-1-.4-1.1a1.2,1.2,0,0,0-1.1-.4h-1v3Zm.4-2.7h.6a.8.8,0,0,1,.7.2,1.3,1.3,0,0,1,.4,1c0,1.1-.7,1.1-1.1,1.1h-.6V156Zm4,2a.5.5,0,0,1-.5.4.6.6,0,0,1-.7-.7h1.6c.1-1.2-.8-1.2-1-1.2a1,1,0,0,0-1,1.1,1,1,0,0,0,1.1,1.1.9.9,0,0,0,.9-.7Zm-1.2-.6c.1-.3.2-.6.6-.6a.6.6,0,0,1,.6.3.4.4,0,0,0,.1.3Zm2.1,1.3h.3v-1.2a.6.6,0,0,1,.1-.4.5.5,0,0,1,.5-.3c.5,0,.5.4.5.6v1.3h.3v-1.4a.9.9,0,0,0-.1-.5c-.1-.3-.4-.3-.6-.3a.7.7,0,0,0-.7.3h0v-.3h-.3v2.2Zm2.2.1c0,.7.6.7.9.7a1.1,1.1,0,0,0,.8-.3,2.5,2.5,0,0,0,.1-.8v-1.9h-.3v.3h0a.7.7,0,0,0-.6-.3,1.1,1.1,0,0,0,0,2.2l.6-.3c0,.4,0,.8-.6.8s-.5-.2-.5-.3Zm.3-1.2c0-.6.3-.8.6-.8s.6.1.6.8a.7.7,0,0,1-.1.5.5.5,0,0,1-.5.3c-.2,0-.3-.1-.4-.3a.8.8,0,0,1-.2-.5Zm2.4-.4c0-.2.1-.4.6-.4s.5.3.5.5h-.7c-.2.1-.8.1-.8.7s.2.6.7.6a1,1,0,0,0,.8-.3.4.4,0,0,0,.1.3h.4a2,2,0,0,1-.1-.9v-.5c0-.4,0-.8-.9-.8s-.9.4-1,.6Zm1.1.5c0,.2,0,.4-.2.5s-.4.2-.5.2-.4-.2-.4-.3.3-.3.5-.4h.6Zm.9,1h.4v-1.2a.6.6,0,0,1,.1-.4c0-.2.3-.3.5-.3s.4.4.4.6v1.3h.4v-1.4a.9.9,0,0,0-.1-.5c-.1-.3-.4-.3-.7-.3a.7.7,0,0,0-.6.3h-.1v-.3h-.3v2.2Zm3.4-1a.8.8,0,0,0,.1.4c.1.3.4.6,1.2.6a1,1,0,0,0,1.1-.9c0-.6-.7-.8-1.2-.9s-.7-.2-.7-.5.4-.4.7-.4.7.3.7.6h.4c0-.6-.5-.9-1.1-.9s-1.1.4-1.1.9.6.7,1,.8.9.2.9.6-.3.5-.8.5a1,1,0,0,1-.8-.4v-.3Zm4.4.3c-.1.1-.2.4-.6.4s-.6-.2-.7-.7h1.6c.1-1.2-.8-1.2-.9-1.2a1,1,0,0,0-1.1,1.1,1,1,0,0,0,1.1,1.1.9.9,0,0,0,.9-.7Zm-1.3-.6a.7.7,0,0,1,.7-.6.5.5,0,0,1,.5.3v.3Zm2.9.9h-.2c-.2,0-.2-.2-.2-.3v-1.3h.4v-.3h-.4v-.7l-.4.2v.5h-.2v.3h.2V158c0,.4,0,.7.5.7h.3v-.4Zm1.8.4h.3v-2.2h-.4v1.2a.6.6,0,0,1-.1.4c0,.2-.3.3-.5.3a.5.5,0,0,1-.4-.3v-1.6H162v1.4a1.1,1.1,0,0,0,.1.5.9.9,0,0,0,.7.3.7.7,0,0,0,.6-.3h.1v.3Zm.9,0h.3v-3h-.3v3Zm2.3,0h.3v-2.2h-.3v1.2a.6.6,0,0,1-.1.4.5.5,0,0,1-.5.3c-.2,0-.4-.1-.4-.3s-.1-.2-.1-.4v-1.2h-.3v1.4a1.1,1.1,0,0,0,.1.5.7.7,0,0,0,.6.3.8.8,0,0,0,.7-.3h0v.3Zm.7-.7a.9.9,0,0,0,1,.7.7.7,0,0,0,.8-.7c0-.4-.3-.5-.8-.6s-.5-.2-.5-.4.3-.2.4-.2.5,0,.5.3h.4c-.1-.2-.1-.6-.9-.6s-.8.3-.8.6.4.5.8.6h.2c.2,0,.4.1.4.3s-.2.3-.5.3-.6-.1-.6-.4Zm3.5.7h.4v-1.4h1.5v1.4h.4v-3h-.4v1.2h-1.5v-1.2h-.4v3Zm3.2-1.5c.1-.2.1-.4.6-.4s.5.3.5.5h-.6c-.3.1-.9.1-.9.7s.3.6.8.6a1.1,1.1,0,0,0,.8-.3v.3h.4a2,2,0,0,1-.1-.9v-.5c0-.4,0-.8-.8-.8s-1,.4-1,.6Zm1.1.5a.7.7,0,0,1-.1.5.8.8,0,0,1-.6.2c-.3,0-.4-.2-.4-.3s.3-.3.5-.4h.6Zm1.7.6h-.1c-.2,0-.2-.2-.2-.3v-1.3h.3v-.3h-.3v-.7l-.4.2v.5h-.3v.3h.3V158c0,.4,0,.7.5.7h.3v-.4Zm.4.4h.4v-2.2h-.4v2.2Zm0-2.6h.4v-.4h-.4v.4Z" transform="translate(-121 -140)"/></svg>