<svg id="Layer_1" data-name="Layer 1" xmlns="http://www.w3.org/2000/svg" viewBox="0 0 727 244"><defs><style>.cls-1{fill:#f0f0f0;}.cls-1,.cls-2,.cls-4,.cls-5,.cls-6{fill-rule:evenodd;}.cls-2{fill:#fecf22;}.cls-3,.cls-6{fill:#006ab4;}.cls-4{fill:#d61627;}.cls-5{fill:#e6e6e6;}</style></defs><title>Indomaret</title><path class="cls-1" d="M77.2,301.9h685A20.8,20.8,0,0,1,777,308a21.1,21.1,0,0,1,6.2,14.9v202a21.2,21.2,0,0,1-21,21H77.2a21.1,21.1,0,0,1-14.9-6.2,20.8,20.8,0,0,1-6.1-14.8v-202a20.8,20.8,0,0,1,21-21Z" transform="translate(-56.2 -301.9)"/><path class="cls-2" d="M775.2,467.5v57.4a13.1,13.1,0,0,1-13,13H77.2a13,13,0,0,1-13-13V467.5Z" transform="translate(-56.2 -301.9)"/><rect class="cls-3" x="8" y="86.6" width="711" height="70.75"/><path class="cls-4" d="M77.2,309.9h685a13,13,0,0,1,13,13v57.4H64.2V322.9A13,13,0,0,1,77.2,309.9Z" transform="translate(-56.2 -301.9)"/><path class="cls-5" d="M172.8,359.3c47.7-14.2,88.1-22.6,126.5-27.5,34.5-4.3,67.2-5.9,102.3-6.2h37.6c34.7.4,67.3,1.9,101.5,6.3,38.3,4.9,78.5,13.3,125.9,27.4a32.3,32.3,0,0,1,14,7.8,21.1,21.1,0,0,1,6.6,15.7V465a21.1,21.1,0,0,1-6.6,15.7,32.3,32.3,0,0,1-14,7.8c-47.4,14-87.6,22.4-125.9,27.3-34.2,4.4-66.8,6-101.5,6.4h-29c-37.9-.1-72.7-1.5-109.1-6-38.8-4.9-79.7-13.3-128.3-27.7a32.7,32.7,0,0,1-14.1-7.8,21.4,21.4,0,0,1-6.5-15.7V382.8a21.4,21.4,0,0,1,6.5-15.7A32.7,32.7,0,0,1,172.8,359.3Z" transform="translate(-56.2 -301.9)"/><path class="cls-6" d="M502.3,451.7c-2.9-4.2-.1-11.1,2-14.9s5.5-9.3,10.7-8.3c2.4,8.5-5.3,24-12.7,23.2ZM340.7,427.9c3.9,9.7-8.8,27.4-13,22.5s4.6-24.4,13-22.5Zm26.7,22.6-1.5-3.3c-4.2.9-10.8,4.8-15.5,3.7-2.6-5.9,15.8-44.3,19.3-56.1l-9.2.5c-2.6,4.3-7.4,19.3-9.8,22.4-16.3-1.7-23.1,3-29.8,11.7-10.8,14.2-2.8,15.6-11,20.2s-6.1,1.8-6.7,1.2c-2.9-2.6,5.4-20.4,6.2-24.3s-1.6-9.2-6.3-8.9-7.7,3.4-10.9,5.1c-10.9,5.9-.6-16.8-30.3,4.1-2.3,1.7-8,5-9.2,6.1.3-1.8,8.8-20.3,10.6-24.6,3.3-8.4,6.7-17,9.5-25.4-10.7-.8-42.8,4.8-52.6,13.5-18.5,16.5,3.6,38.2,18.1,21.5-3.5-2.5-8.9-.1-9.7-6.5s1.3-9.3,4.3-11.6,19.7-5.7,25.4-6.8c-.6,3-3.1,8.7-4.3,12-6.3,17.7-14.1,44.8-36.7,45.5-11.9.4-15.3-4.9-19.5-13-2.6,2.9-3.6,9-2.1,13.4s4.4,6.7,8.1,8.5c17.7,8.5,33.3-5.9,45.9-15.6,3.1-2.4,14.9-14.4,21-11.4,3.3,6.7-6.5,20.9-6.7,27.8l11.7.3c2.1-5.8,3.8-12.1,5.8-18.1s4-14.4,10.8-9.7c2.6,6.9-8.4,21.4-2.4,26.2s20.3-5,23.6-7c2.6,3.7,2.6,8.4,9.3,9.6s10.8-1.7,13.9-4.2c1.9,2.4,1.4,4.7,5.8,4.3s17.2-8.8,24.9-11.1Zm221-9.9c-.5-6.1,6.2-14.5,11-14.2,1.6,3.5-1.2,7.5-3,9.6s-4.2,5-8,4.6ZM413.1,426.1l1.4,4.1c3.6-1,7.7-3.4,11.3-2.4,1.1,7-9.4,26-10.9,34.1l11.5-.3c2.2-3.8,4.6-12.7,6.4-17.3s3.9-14.3,10.6-12c3.9,7.8-6.8,21.7-7.6,29.3h13.1c2.4-6.9,5.2-15.6,8-22.5,1.4-3.4,2.9-8.8,8-7.3s-4.2,12.4-4.1,22c0,4.3,2.9,8.1,7.2,7.6s15.3-8.3,20.2-9.4c2.2,5,2.7,8.2,8.7,9.1s9.9-1.9,13.9-4.2l.3.4.9,1.2c1.2,1.8,1.8,3.1,4.8,3.4,9.6,1,23.9-14.4,29.5-21.8s3.6-7.6,11.6-8.3c-1.7,7.6-10.3,19.7-3,27s21.8-2.5,26.3-5.1c4,4.5,6.2,8.5,15.9,8.1,7.6-.4,11.9-3.5,18-5.2,7.5,12.2,31.8.1,30.9-7.3-3.1-.6-6.8,3.8-10,5.5s-9,.9-9.1-4.3c-.1-2.6,6.1-21.7,7.4-24h7.4l2.4-8.4h-5.2c1-8.8,5.7-16.4,7.2-24.1l-10.3.4-8.3,23-7.6.4-1.8,8.7H624c-1.2,8.2-6,19.2-10.1,24.4s-19.8,8.6-22.6-.8c3.6-4,9.9-5,14.9-13.5,12.3-21.4-12.4-24-22.4-9.1-6.3,9.3-4.4,12.2-4,23.2-12.5,6.9-16.8,8.3-15.7-3.9s3-10.5,5-12.7,2.2-4.7.5-6.3-5.4-.3-9-1.6c-2.4-5.8,1.6-6.7,3.2-9.9-2.1-.5-3.8-.2-5.9-.5-5.1-.8-.6-1-4-2.9-2.9,1.1-3.1,1.2-4.1,4.5-3,9.5-1.9,11.5-7.1,18.8-2.8,4-12.4,17.3-18.9,14.9-3.1-4,8.5-27.5,9.9-33.3-11.8-.9-10,1.3-11.6,3.2-10.9-4.9-16.7-.8-23.3,5.2-9.6,8.5-10,20.7-11.2,22-2.9,1.9-8.8,4.5-13.1,2.9-1.2-4.9,6.4-19.2,7.6-25.1s-2.2-9.4-8.4-7.8c-4.7,1.2-6.5,5.5-10.7,6.1-3.7-2.6-3.8-7.9-11.2-6.6-5.2.9-5.5,4.9-11.4,6.1l-.3-.5-.7-1.6c-.2-.9-.9-3.4-2.2-4.1C431.2,416.7,419.4,424.3,413.1,426.1Z" transform="translate(-56.2 -301.9)"/><path class="cls-4" d="M389.9,422.8a14.3,14.3,0,0,1,14.5,14.5,14.4,14.4,0,0,1-4.2,10.2,14.7,14.7,0,0,1-10.3,4.3,14.7,14.7,0,0,1-14.5-14.5,14.7,14.7,0,0,1,4.3-10.3,14.4,14.4,0,0,1,10.2-4.2Zm0-12.5a27,27,0,1,0,19.1,46,27,27,0,0,0-19.1-46Zm17,10a24.1,24.1,0,1,0,0,33.9,24,24,0,0,0,0-33.9Zm-17-3.8a20.8,20.8,0,1,0,14.7,6.1,20.3,20.3,0,0,0-14.7-6.1Zm12.6,8.2a17.8,17.8,0,0,0-12.6-5.2,17.6,17.6,0,0,0-12.5,5.2,17.8,17.8,0,0,0-5.2,12.6A17.8,17.8,0,0,0,389.9,455a17.8,17.8,0,0,0,12.6-5.2,17.6,17.6,0,0,0,5.2-12.5,17.8,17.8,0,0,0-5.2-12.6Zm-4.4,4.4a11.6,11.6,0,1,0,0,16.3,11.7,11.7,0,0,0,0-16.3Z" transform="translate(-56.2 -301.9)"/><path class="cls-4" d="M176.2,370.8c94.2-28,159-33.2,237.4-33.3h13.6c77.7.2,142.3,5.5,236,33.3,6.3,1.8,12,5.4,12,12V465c0,6.6-5.7,10.1-12,12-93.7,27.8-158.3,33.1-236,33.3h-10c-80,0-145.4-4.9-241-33.3-6.3-1.9-12-5.4-12-12V382.8c0-6.6,5.7-10.2,12-12Zm239.1-15.3c-73.2.3-138.8,3.1-224.6,25.3-6.4,1.6-12,5.4-12,12V455c0,6.6,5.6,10.4,12,12,85.1,22,150.3,25,222.9,25.3h12.2c72.5-.3,137.8-3.3,222.9-25.3,6.4-1.6,12-5.4,12-12V392.8c0-6.6-5.6-10.4-12-12-85.8-22.2-151.4-25-224.6-25.3Z" transform="translate(-56.2 -301.9)"/></svg>